<svg xmlns="http://www.w3.org/2000/svg" xml:space="preserve" width="220" height="48" data-id="lg_YNIsd1xQcFMECEnMpi" data-version="1" viewBox="0 0 1500 294"><g data-padding="20"><g transform="translate(10 5.25)scale(.96429)"><rect width="560" height="293.8" x="86.907" y="-399.93" fill="none" rx="0" ry="0" transform="translate(400.5 400.03)"/><path fill="#0072ff" d="M632.787 111.94q30.94 8.32 46.28 21.97t15.34 35.49q0 17.42-10.92 31.2t-32.11 21.58-51.35 7.8q-35.62 0-62.79-9.23t-42.51-22.49l8.58-11.7q13.52 10.66 34.06 18.2t44.2 7.54q15.34 0 23.27-4.42t7.93-12.48q0-14.04-27.82-21.84l-33.8-9.88q-27.56-8.32-42.51-23.14t-14.95-35.1q0-16.9 10.66-30.68t31.07-21.71 49.01-7.93q27.3 0 50.31 6.24t37.57 15.08l-8.58 11.96q-12.22-7.02-29.25-11.96t-35.75-4.94q-16.38 0-25.09 5.07t-8.71 13.91q0 6.76 6.5 11.83t24.7 10.01Zm74.62 116.74v-182h91.26v182Zm145.08 0-53.82-91.26 42.64-90.74h90.74l-45.5 90.74 57.72 91.26Zm106.34 0v-182h84.76v182Z"/></g><path fill="transparent" stroke="transparent" d="M470 0h560v294H470z"/></g></svg>