<?xml version="1.0" encoding="UTF-8"?>
<svg version="1.1" xmlns="http://www.w3.org/2000/svg" width="417" height="250">
<path d="M0 0 C2.56947148 2.59791581 2.4710432 3.46490394 2.60546875 7.02734375 C2.57223514 8.96153959 2.51260876 10.89542169 2.4296875 12.828125 C2.40712891 13.81619141 2.38457031 14.80425781 2.36132812 15.82226562 C2.30238855 18.26236407 2.21270736 20.70168461 2.1171875 23.140625 C-3.4928125 22.480625 -9.1028125 21.820625 -14.8828125 21.140625 C-12.67577265 28.86526449 -11.55433673 30.01929989 -5.0703125 33.765625 C-4.3484375 34.219375 -3.6265625 34.673125 -2.8828125 35.140625 C-2.8828125 35.800625 -2.8828125 36.460625 -2.8828125 37.140625 C-2.2228125 37.140625 -1.5628125 37.140625 -0.8828125 37.140625 C0.7421875 39.640625 0.7421875 39.640625 2.1171875 42.140625 C2.14224365 40.87355713 2.1672998 39.60648926 2.19311523 38.30102539 C2.28700746 33.61764721 2.38727185 28.9344237 2.48950195 24.2512207 C2.53291991 22.22098396 2.57458976 20.19070908 2.61450195 18.16040039 C2.67203896 15.24874349 2.73578028 12.33727986 2.80078125 9.42578125 C2.82584999 8.05547508 2.82584999 8.05547508 2.85142517 6.65748596 C3.00331579 0.25449671 3.00331579 0.25449671 4.1171875 -0.859375 C5.97006252 -0.93164002 7.82552628 -0.9431872 9.6796875 -0.921875 C10.69160156 -0.91285156 11.70351563 -0.90382812 12.74609375 -0.89453125 C13.52855469 -0.88292969 14.31101563 -0.87132812 15.1171875 -0.859375 C16.53986612 1.98598225 16.33690619 4.50281052 16.43359375 7.6796875 C16.47548828 8.98164063 16.51738281 10.28359375 16.56054688 11.625 C16.60036049 13.00520545 16.64007272 14.38541383 16.6796875 15.765625 C16.72288157 17.15365915 16.76649615 18.54168028 16.81054688 19.9296875 C16.9169075 23.33322756 17.01893464 26.73684278 17.1171875 30.140625 C19.0971875 30.140625 21.0771875 30.140625 23.1171875 30.140625 C23.11195068 29.23707275 23.10671387 28.33352051 23.10131836 27.40258789 C23.08431064 24.06111011 23.07175417 20.71967808 23.06225586 17.37817383 C23.05721649 15.92992427 23.05038497 14.48167983 23.04174805 13.03344727 C23.02966503 10.95587912 23.02395539 8.87837803 23.01953125 6.80078125 C23.01429443 5.54918213 23.00905762 4.29758301 23.00366211 3.00805664 C23.1171875 0.140625 23.1171875 0.140625 24.1171875 -0.859375 C25.94834633 -0.95788671 27.78338683 -0.98910129 29.6171875 -0.984375 C30.6175 -0.98695313 31.6178125 -0.98953125 32.6484375 -0.9921875 C35.1171875 -0.859375 35.1171875 -0.859375 36.1171875 0.140625 C36.24099588 2.19540953 36.29516953 4.2544146 36.32250977 6.31274414 C36.33240936 6.95662582 36.34230896 7.60050751 36.35250854 8.26390076 C36.38420278 10.40115631 36.40891199 12.53843413 36.43359375 14.67578125 C36.45415646 16.15409436 36.47515274 17.63240149 36.49656677 19.11070251 C36.55185809 23.00854671 36.60123607 26.90644458 36.64941406 30.80438232 C36.69957769 34.77914223 36.75529051 38.75382384 36.81054688 42.72851562 C36.91821474 50.53248585 37.01964037 58.33652102 37.1171875 66.140625 C37.6121875 61.190625 37.6121875 61.190625 38.1171875 56.140625 C38.7771875 56.140625 39.4371875 56.140625 40.1171875 56.140625 C40.10558594 55.43035156 40.09398438 54.72007812 40.08203125 53.98828125 C40.07300781 53.06917969 40.06398438 52.15007812 40.0546875 51.203125 C40.04308594 50.28660156 40.03148438 49.37007812 40.01953125 48.42578125 C40.1171875 46.140625 40.1171875 46.140625 41.1171875 45.140625 C41.34289934 43.72941598 41.51107099 42.30886457 41.65234375 40.88671875 C41.73935547 40.03271484 41.82636719 39.17871094 41.91601562 38.29882812 C42.00302734 37.40099609 42.09003906 36.50316406 42.1796875 35.578125 C42.31600586 34.22557617 42.31600586 34.22557617 42.45507812 32.84570312 C42.67972673 30.61104066 42.90024519 28.37604661 43.1171875 26.140625 C43.7771875 26.140625 44.4371875 26.140625 45.1171875 26.140625 C45.10558594 25.43035156 45.09398438 24.72007812 45.08203125 23.98828125 C45.07300781 23.06917969 45.06398438 22.15007812 45.0546875 21.203125 C45.04308594 20.28660156 45.03148438 19.37007812 45.01953125 18.42578125 C45.1171875 16.140625 45.1171875 16.140625 46.1171875 15.140625 C46.49111595 12.63997851 46.82242766 10.15068922 47.1171875 7.640625 C47.98205236 0.27576014 47.98205236 0.27576014 49.1171875 -0.859375 C50.97006252 -0.93164002 52.82552628 -0.9431872 54.6796875 -0.921875 C55.69160156 -0.91285156 56.70351562 -0.90382812 57.74609375 -0.89453125 C58.52855469 -0.88292969 59.31101562 -0.87132812 60.1171875 -0.859375 C61.56727134 2.4593128 62.41933854 5.34797831 62.7421875 8.953125 C62.85433594 10.13841797 62.85433594 10.13841797 62.96875 11.34765625 C63.01773438 11.93933594 63.06671875 12.53101563 63.1171875 13.140625 C63.4471875 13.140625 63.7771875 13.140625 64.1171875 13.140625 C64.17253662 13.70571777 64.22788574 14.27081055 64.28491211 14.85302734 C64.53743122 17.40764832 64.79598473 19.96162315 65.0546875 22.515625 C65.14169922 23.40507812 65.22871094 24.29453125 65.31835938 25.2109375 C65.40537109 26.06171875 65.49238281 26.9125 65.58203125 27.7890625 C65.6605835 28.57458496 65.73913574 29.36010742 65.82006836 30.16943359 C66.02415048 32.21197303 66.02415048 32.21197303 67.1171875 34.140625 C67.34186581 35.67731365 67.52515555 37.22030554 67.6796875 38.765625 C67.76347656 39.58289063 67.84726563 40.40015625 67.93359375 41.2421875 C67.99417969 41.86867187 68.05476563 42.49515625 68.1171875 43.140625 C68.4471875 43.140625 68.7771875 43.140625 69.1171875 43.140625 C69.17253662 43.70571777 69.22788574 44.27081055 69.28491211 44.85302734 C69.53743122 47.40764832 69.79598473 49.96162315 70.0546875 52.515625 C70.14169922 53.40507812 70.22871094 54.29453125 70.31835938 55.2109375 C70.40537109 56.06171875 70.49238281 56.9125 70.58203125 57.7890625 C70.6605835 58.57458496 70.73913574 59.36010742 70.82006836 60.16943359 C71.02415048 62.21197303 71.02415048 62.21197303 72.1171875 64.140625 C72.12749496 63.34104874 72.13780243 62.54147247 72.14842224 61.71766663 C72.24622832 54.19795204 72.34871815 46.67832307 72.45652676 39.15874577 C72.51179105 35.2924649 72.5652165 31.42617652 72.61450195 27.55981445 C72.662094 23.83152413 72.71443465 20.10332848 72.77012825 16.37515068 C72.79057528 14.94975567 72.80928441 13.52433468 72.82626152 12.09889412 C72.85025346 10.10891959 72.88088886 8.11902845 72.91186523 6.12915039 C72.92740952 4.99441788 72.9429538 3.85968536 72.95896912 2.69056702 C73.1171875 0.140625 73.1171875 0.140625 74.1171875 -0.859375 C77.40140685 -1.11022359 80.69951558 -1.04459791 83.9921875 -1.046875 C84.91644531 -1.05912109 85.84070313 -1.07136719 86.79296875 -1.08398438 C88.12521484 -1.08688477 88.12521484 -1.08688477 89.484375 -1.08984375 C90.30019043 -1.09395264 91.11600586 -1.09806152 91.95654297 -1.10229492 C94.1171875 -0.859375 94.1171875 -0.859375 97.1171875 1.140625 C97.1171875 1.800625 97.1171875 2.460625 97.1171875 3.140625 C97.7771875 3.140625 98.4371875 3.140625 99.1171875 3.140625 C101.27024707 6.99819007 102.50972004 9.69192285 102.1171875 14.140625 C102.7771875 14.140625 103.4371875 14.140625 104.1171875 14.140625 C104.1171875 22.720625 104.1171875 31.300625 104.1171875 40.140625 C103.4571875 40.140625 102.7971875 40.140625 102.1171875 40.140625 C101.9728125 41.254375 101.8284375 42.368125 101.6796875 43.515625 C101.1171875 47.140625 101.1171875 47.140625 100.1171875 49.140625 C99.86672261 54.23341102 100.08584199 57.44313851 102.1171875 62.140625 C102.2421875 64.953125 102.2421875 64.953125 102.1171875 67.140625 C102.7771875 67.140625 103.4371875 67.140625 104.1171875 67.140625 C104.4471875 65.820625 104.7771875 64.500625 105.1171875 63.140625 C105.7771875 63.140625 106.4371875 63.140625 107.1171875 63.140625 C107.08625 61.1915625 107.08625 61.1915625 107.0546875 59.203125 C107.0546875 46.203125 107.0546875 46.203125 109.1171875 44.140625 C109.32494311 42.47858013 109.48437005 40.81033009 109.6171875 39.140625 C110.00607639 34.25173611 110.00607639 34.25173611 111.1171875 33.140625 C111.33040478 31.81393968 111.48716213 30.47802881 111.6171875 29.140625 C111.6996875 28.33625 111.7821875 27.531875 111.8671875 26.703125 C111.9496875 25.8575 112.0321875 25.011875 112.1171875 24.140625 C112.27982793 22.47356062 112.44629127 20.80686329 112.6171875 19.140625 C112.689375 18.398125 112.7615625 17.655625 112.8359375 16.890625 C113.1171875 15.140625 113.1171875 15.140625 114.1171875 14.140625 C114.40296779 11.69107963 114.56520469 9.2411467 114.73828125 6.78125 C115.1171875 4.140625 115.1171875 4.140625 117.1171875 -0.859375 C120.7471875 -0.859375 124.3771875 -0.859375 128.1171875 -0.859375 C129.86357149 4.73664675 130.87876861 10.28528905 131.7421875 16.078125 C131.94328125 17.39006836 131.94328125 17.39006836 132.1484375 18.72851562 C132.47537326 20.86527434 132.79684429 23.00286799 133.1171875 25.140625 C133.4471875 25.140625 133.7771875 25.140625 134.1171875 25.140625 C134.24996094 26.15382812 134.38273438 27.16703125 134.51953125 28.2109375 C134.69786334 29.56250704 134.87625175 30.91406914 135.0546875 32.265625 C135.18520508 33.26335937 135.18520508 33.26335937 135.31835938 34.28125 C135.7191052 37.30910731 136.14885171 40.3200555 136.6796875 43.328125 C137.08750736 45.94982408 137.21980855 48.36763551 137.1796875 51.015625 C137.17066406 51.79679687 137.16164062 52.57796875 137.15234375 53.3828125 C137.13494141 54.25292969 137.13494141 54.25292969 137.1171875 55.140625 C137.7771875 55.140625 138.4371875 55.140625 139.1171875 55.140625 C139.17777344 55.89988281 139.23835937 56.65914062 139.30078125 57.44140625 C139.38457031 58.43527344 139.46835938 59.42914063 139.5546875 60.453125 C139.67650391 61.93232422 139.67650391 61.93232422 139.80078125 63.44140625 C140.03531309 66.23438099 140.03531309 66.23438099 141.1171875 69.140625 C141.6121875 34.490625 141.6121875 34.490625 142.1171875 -0.859375 C145.7471875 -0.859375 149.3771875 -0.859375 153.1171875 -0.859375 C155.69605557 5.19535873 156.72739544 10.58136557 157.1171875 17.140625 C157.7771875 17.140625 158.4371875 17.140625 159.1171875 17.140625 C160.1071875 21.100625 160.1071875 21.100625 161.1171875 25.140625 C161.15477173 24.0124939 161.15477173 24.0124939 161.19311523 22.86157227 C161.30869264 19.47523304 161.43159095 16.08919887 161.5546875 12.703125 C161.59400391 11.51912109 161.63332031 10.33511719 161.67382812 9.11523438 C161.71572266 7.99052734 161.75761719 6.86582031 161.80078125 5.70703125 C161.85576782 4.14384155 161.85576782 4.14384155 161.91186523 2.54907227 C162.1171875 0.140625 162.1171875 0.140625 163.1171875 -0.859375 C166.7471875 -0.859375 170.3771875 -0.859375 174.1171875 -0.859375 C174.1171875 26.530625 174.1171875 53.920625 174.1171875 82.140625 C170.1571875 82.140625 166.1971875 82.140625 162.1171875 82.140625 C162.1171875 80.160625 162.1171875 78.180625 162.1171875 76.140625 C161.4571875 76.140625 160.7971875 76.140625 160.1171875 76.140625 C159.60814093 74.26806083 159.11036295 72.39243159 158.6171875 70.515625 C158.19953125 68.94941406 158.19953125 68.94941406 157.7734375 67.3515625 C157.12600154 64.18375082 157.0010583 61.36321033 157.1171875 58.140625 C156.4571875 58.140625 155.7971875 58.140625 155.1171875 58.140625 C155.07960327 59.1778772 155.07960327 59.1778772 155.04125977 60.23608398 C154.92566589 63.35030366 154.80277508 66.46419289 154.6796875 69.578125 C154.64037109 70.66673828 154.60105469 71.75535156 154.56054688 72.87695312 C154.51865234 73.91142578 154.47675781 74.94589844 154.43359375 76.01171875 C154.37860718 77.44922485 154.37860718 77.44922485 154.32250977 78.91577148 C154.1171875 81.140625 154.1171875 81.140625 153.1171875 82.140625 C151.33647504 82.22788723 149.5523561 82.24761541 147.76953125 82.23828125 C146.68994141 82.23505859 145.61035156 82.23183594 144.49804688 82.22851562 C143.36173828 82.22013672 142.22542969 82.21175781 141.0546875 82.203125 C139.91451172 82.19861328 138.77433594 82.19410156 137.59960938 82.18945312 C134.77208399 82.17762247 131.9446611 82.1611391 129.1171875 82.140625 C127.6364027 79.1790554 127.76404713 76.30556205 127.5546875 73.015625 C127.47089844 71.73429687 127.38710937 70.45296875 127.30078125 69.1328125 C127.24019531 68.14539063 127.17960938 67.15796875 127.1171875 66.140625 C124.4771875 66.140625 121.8371875 66.140625 119.1171875 66.140625 C119.1171875 67.130625 119.1171875 68.120625 119.1171875 69.140625 C118.4571875 69.140625 117.7971875 69.140625 117.1171875 69.140625 C117.12878906 69.91148437 117.14039063 70.68234375 117.15234375 71.4765625 C117.16136719 72.47945313 117.17039063 73.48234375 117.1796875 74.515625 C117.19128906 75.51335937 117.20289063 76.51109375 117.21484375 77.5390625 C117.1171875 80.140625 117.1171875 80.140625 116.1171875 82.140625 C108.5271875 82.140625 100.9371875 82.140625 93.1171875 82.140625 C92.6221875 78.675625 92.6221875 78.675625 92.1171875 75.140625 C91.4571875 75.140625 90.7971875 75.140625 90.1171875 75.140625 C90.1171875 73.160625 90.1171875 71.180625 90.1171875 69.140625 C89.4571875 69.140625 88.7971875 69.140625 88.1171875 69.140625 C87.7871875 65.840625 87.4571875 62.540625 87.1171875 59.140625 C86.4571875 59.140625 85.7971875 59.140625 85.1171875 59.140625 C85.1171875 66.730625 85.1171875 74.320625 85.1171875 82.140625 C81.13797656 82.16745114 77.15894409 82.18737893 73.1796875 82.203125 C71.47522461 82.21569336 71.47522461 82.21569336 69.73632812 82.22851562 C68.65673828 82.23173828 67.57714844 82.23496094 66.46484375 82.23828125 C64.96449585 82.24613647 64.96449585 82.24613647 63.43383789 82.25415039 C61.1171875 82.140625 61.1171875 82.140625 60.1171875 81.140625 C60.04474697 79.12098301 60.03341562 77.09895376 60.0546875 75.078125 C60.06371094 73.97339844 60.07273437 72.86867188 60.08203125 71.73046875 C60.09363281 70.87582031 60.10523437 70.02117187 60.1171875 69.140625 C59.4571875 69.140625 58.7971875 69.140625 58.1171875 69.140625 C58.1171875 68.480625 58.1171875 67.820625 58.1171875 67.140625 C55.4771875 66.810625 52.8371875 66.480625 50.1171875 66.140625 C50.05660156 67.21183594 49.99601562 68.28304687 49.93359375 69.38671875 C49.84920213 70.78386891 49.76455344 72.18100357 49.6796875 73.578125 C49.64037109 74.28517578 49.60105469 74.99222656 49.56054688 75.72070312 C49.23046875 81.02734375 49.23046875 81.02734375 48.1171875 82.140625 C46.34859557 82.24008953 44.57607299 82.27142717 42.8046875 82.2734375 C41.72960937 82.27472656 40.65453125 82.27601563 39.546875 82.27734375 C38.41507812 82.27347656 37.28328125 82.26960938 36.1171875 82.265625 C34.98539063 82.26949219 33.85359375 82.27335937 32.6875 82.27734375 C31.61242187 82.27605469 30.53734375 82.27476562 29.4296875 82.2734375 C28.43582031 82.27230957 27.44195312 82.27118164 26.41796875 82.27001953 C24.1171875 82.140625 24.1171875 82.140625 23.1171875 81.140625 C23.02935208 78.92207236 23.01024141 76.70074004 23.01953125 74.48046875 C23.0209462 73.81600235 23.02236115 73.15153595 23.02381897 72.4669342 C23.02943232 70.33728601 23.04198696 68.20774161 23.0546875 66.078125 C23.05970079 64.63737131 23.06426399 63.19661597 23.06835938 61.75585938 C23.07940605 58.21741398 23.09667958 54.67902961 23.1171875 51.140625 C20.8071875 51.140625 18.4971875 51.140625 16.1171875 51.140625 C16.12242432 52.04417725 16.12766113 52.94772949 16.13305664 53.87866211 C16.15006436 57.22013989 16.16262083 60.56157192 16.17211914 63.90307617 C16.17715851 65.35132573 16.18399003 66.79957017 16.19262695 68.24780273 C16.20470997 70.32537088 16.21041961 72.40287197 16.21484375 74.48046875 C16.22008057 75.73206787 16.22531738 76.98366699 16.23071289 78.27319336 C16.1171875 81.140625 16.1171875 81.140625 15.1171875 82.140625 C13.28602867 82.23913671 11.45098817 82.27035129 9.6171875 82.265625 C8.616875 82.26820313 7.6165625 82.27078125 6.5859375 82.2734375 C4.1171875 82.140625 4.1171875 82.140625 3.1171875 81.140625 C2.88525885 79.62593052 2.70503512 78.10307938 2.5546875 76.578125 C2.47089844 75.75183594 2.38710938 74.92554688 2.30078125 74.07421875 C2.24019531 73.43613281 2.17960937 72.79804688 2.1171875 72.140625 C1.7046875 73.11 1.2921875 74.079375 0.8671875 75.078125 C-0.8828125 78.140625 -0.8828125 78.140625 -3.0703125 79.015625 C-3.6684375 79.056875 -4.2665625 79.098125 -4.8828125 79.140625 C-4.8828125 79.800625 -4.8828125 80.460625 -4.8828125 81.140625 C-12.68661268 84.02463811 -19.20902312 83.21014075 -26.8828125 80.140625 C-26.8828125 73.210625 -26.8828125 66.280625 -26.8828125 59.140625 C-20.6128125 59.470625 -14.3428125 59.800625 -7.8828125 60.140625 C-10.40969368 53.30618628 -10.40969368 53.30618628 -15.5703125 50.203125 C-16.37855469 49.80222656 -17.18679687 49.40132812 -18.01953125 48.98828125 C-18.63441406 48.70855469 -19.24929687 48.42882812 -19.8828125 48.140625 C-19.8828125 47.480625 -19.8828125 46.820625 -19.8828125 46.140625 C-20.5428125 46.140625 -21.2028125 46.140625 -21.8828125 46.140625 C-22.2128125 44.490625 -22.5428125 42.840625 -22.8828125 41.140625 C-23.5428125 41.140625 -24.2028125 41.140625 -24.8828125 41.140625 C-24.8828125 39.490625 -24.8828125 37.840625 -24.8828125 36.140625 C-25.5428125 36.140625 -26.2028125 36.140625 -26.8828125 36.140625 C-26.8828125 28.550625 -26.8828125 20.960625 -26.8828125 13.140625 C-26.2228125 13.140625 -25.5628125 13.140625 -24.8828125 13.140625 C-24.9446875 12.41875 -25.0065625 11.696875 -25.0703125 10.953125 C-24.76107118 6.31450513 -22.7737583 4.00812486 -19.5078125 0.828125 C-13.33575431 -2.0450745 -6.49850971 -1.93722512 0 0 Z M85.1171875 21.140625 C85.1171875 26.420625 85.1171875 31.700625 85.1171875 37.140625 C87.4271875 37.140625 89.7371875 37.140625 92.1171875 37.140625 C92.31391115 35.41248339 92.49915549 33.68303303 92.6796875 31.953125 C92.78410156 30.99019531 92.88851562 30.02726562 92.99609375 29.03515625 C93.11477501 26.19829123 92.79484389 23.88638829 92.1171875 21.140625 C89.8071875 21.140625 87.4971875 21.140625 85.1171875 21.140625 Z M54.1171875 36.140625 C54.1171875 39.110625 54.1171875 42.080625 54.1171875 45.140625 C54.4471875 45.140625 54.7771875 45.140625 55.1171875 45.140625 C55.1171875 42.170625 55.1171875 39.200625 55.1171875 36.140625 C54.7871875 36.140625 54.4571875 36.140625 54.1171875 36.140625 Z M122.1171875 36.140625 C122.1171875 39.110625 122.1171875 42.080625 122.1171875 45.140625 C122.4471875 45.140625 122.7771875 45.140625 123.1171875 45.140625 C123.1171875 42.170625 123.1171875 39.200625 123.1171875 36.140625 C122.7871875 36.140625 122.4571875 36.140625 122.1171875 36.140625 Z " fill="#40A4F4" transform="translate(38.8828125,134.859375)"/>
<path d="M0 0 C0.89589844 -0.01417969 1.79179687 -0.02835938 2.71484375 -0.04296875 C5.0625 0.1875 5.0625 0.1875 7.0625 2.1875 C7.1875 5.8125 7.1875 5.8125 7.0625 9.1875 C7.7225 9.1875 8.3825 9.1875 9.0625 9.1875 C9.206875 10.321875 9.35125 11.45625 9.5 12.625 C9.67421478 15.99527201 9.67421478 15.99527201 11.0625 17.1875 C11.29731693 19.37042774 11.47613323 21.55953174 11.625 23.75 C11.75068359 25.54630859 11.75068359 25.54630859 11.87890625 27.37890625 C11.93949219 28.30574219 12.00007813 29.23257813 12.0625 30.1875 C13.7125 30.1875 15.3625 30.1875 17.0625 30.1875 C17.02125 29.176875 16.98 28.16625 16.9375 27.125 C17.06513712 23.10443086 17.89915391 20.0196989 19.0625 16.1875 C19.43200465 13.85962073 19.77602467 11.52704855 20.0625 9.1875 C20.7225 9.1875 21.3825 9.1875 22.0625 9.1875 C22.02125 8.07375 21.98 6.96 21.9375 5.8125 C22.0625 2.1875 22.0625 2.1875 24.0625 0.1875 C26.375 -0.078125 26.375 -0.078125 29.0625 -0.0625 C29.949375 -0.06765625 30.83625 -0.0728125 31.75 -0.078125 C34.0625 0.1875 34.0625 0.1875 36.0625 2.1875 C36.3409729 4.62991333 36.3409729 4.62991333 36.38134766 7.73876953 C36.40121735 8.89982208 36.42108704 10.06087463 36.44155884 11.2571106 C36.45311005 12.51546722 36.46466125 13.77382385 36.4765625 15.0703125 C36.49592865 16.35485321 36.5152948 17.63939392 36.5352478 18.96286011 C36.58663941 22.37897535 36.62622714 25.79513007 36.66339111 29.21142578 C36.70338698 32.69703999 36.75449938 36.18248903 36.8046875 39.66796875 C36.90152975 46.5076919 36.9859078 53.34752096 37.0625 60.1875 C38.59951881 58.65048119 38.38548725 57.06942837 38.59765625 54.93359375 C38.68466797 54.07958984 38.77167969 53.22558594 38.86132812 52.34570312 C38.9918457 50.99895508 38.9918457 50.99895508 39.125 49.625 C39.21587891 48.72330078 39.30675781 47.82160156 39.40039062 46.89257812 C39.62503923 44.65791566 39.84555769 42.42292161 40.0625 40.1875 C40.7225 40.1875 41.3825 40.1875 42.0625 40.1875 C42.05089844 39.47722656 42.03929687 38.76695312 42.02734375 38.03515625 C42.01832031 37.11605469 42.00929688 36.19695312 42 35.25 C41.98839844 34.33347656 41.97679687 33.41695312 41.96484375 32.47265625 C42.0625 30.1875 42.0625 30.1875 43.0625 29.1875 C43.28821184 27.77629098 43.45638349 26.35573957 43.59765625 24.93359375 C43.68466797 24.07958984 43.77167969 23.22558594 43.86132812 22.34570312 C43.94833984 21.44787109 44.03535156 20.55003906 44.125 19.625 C44.21587891 18.72330078 44.30675781 17.82160156 44.40039062 16.89257812 C44.62503923 14.65791566 44.84555769 12.42292161 45.0625 10.1875 C45.7225 10.1875 46.3825 10.1875 47.0625 10.1875 C47.05089844 9.54941406 47.03929687 8.91132813 47.02734375 8.25390625 C47.01832031 7.42761719 47.00929688 6.60132813 47 5.75 C46.98839844 4.92628906 46.97679687 4.10257813 46.96484375 3.25390625 C47.0625 1.1875 47.0625 1.1875 48.0625 0.1875 C49.87177281 0.06262242 51.68646107 0.01179154 53.5 0 C54.48871094 -0.01417969 55.47742188 -0.02835938 56.49609375 -0.04296875 C59.0625 0.1875 59.0625 0.1875 61.0625 2.1875 C61.45727539 4.05102539 61.45727539 4.05102539 61.66015625 6.28515625 C61.73943359 7.08630859 61.81871094 7.88746094 61.90039062 8.71289062 C61.97451172 9.55013672 62.04863281 10.38738281 62.125 11.25 C62.14894429 16.65012488 62.14894429 16.65012488 64.0625 21.1875 C64.13455511 22.87358966 64.14636068 24.56250659 64.125 26.25 C64.11597656 27.16910156 64.10695313 28.08820313 64.09765625 29.03515625 C64.08605469 29.74542969 64.07445312 30.45570313 64.0625 31.1875 C64.7225 31.1875 65.3825 31.1875 66.0625 31.1875 C66.11784912 31.75782959 66.17319824 32.32815918 66.23022461 32.91577148 C66.48223743 35.48598753 66.74102728 38.05547631 67 40.625 C67.08701172 41.52283203 67.17402344 42.42066406 67.26367188 43.34570312 C67.35068359 44.19970703 67.43769531 45.05371094 67.52734375 45.93359375 C67.605896 46.72435303 67.68444824 47.5151123 67.76538086 48.32983398 C67.87801499 50.19853348 67.87801499 50.19853348 69.0625 51.1875 C69.13455511 52.87358966 69.14636068 54.56250659 69.125 56.25 C69.11597656 57.16910156 69.10695313 58.08820313 69.09765625 59.03515625 C69.08605469 59.74542969 69.07445312 60.45570313 69.0625 61.1875 C69.7225 61.1875 70.3825 61.1875 71.0625 61.1875 C71.07280746 60.43803604 71.08311493 59.68857208 71.09373474 58.91639709 C71.19154525 51.86759546 71.29403576 44.81888126 71.40183926 37.77022648 C71.45710097 34.1460842 71.510526 30.5219339 71.55981445 26.89770508 C71.60741032 23.40282901 71.6597511 19.9080538 71.71544075 16.41329765 C71.74586413 14.42516177 71.77131982 12.43695191 71.79673767 10.44874573 C71.81668289 9.24757614 71.83662811 8.04640656 71.85717773 6.80883789 C71.87272202 5.74516495 71.8882663 4.681492 71.90428162 3.58558655 C72.0625 1.1875 72.0625 1.1875 73.0625 0.1875 C76.30235344 -0.14663632 79.55763453 -0.13749508 82.8125 -0.1875 C83.72 -0.22488281 84.6275 -0.26226562 85.5625 -0.30078125 C90.19751401 -0.36176828 92.34922718 -0.35379079 96.140625 2.5234375 C98.0625 5.1875 98.0625 5.1875 99.0625 8.1875 C99.7225 8.1875 100.3825 8.1875 101.0625 8.1875 C101.19527344 9.04214844 101.32804687 9.89679688 101.46484375 10.77734375 C101.72974609 12.43443359 101.72974609 12.43443359 102 14.125 C102.26103516 15.77822266 102.26103516 15.77822266 102.52734375 17.46484375 C102.78095136 20.09176929 102.78095136 20.09176929 104.0625 21.1875 C104.16159302 23.51910055 104.19220504 25.85379942 104.1875 28.1875 C104.19136719 30.105625 104.19136719 30.105625 104.1953125 32.0625 C104.0625 35.1875 104.0625 35.1875 103.0625 36.1875 C102.66680892 38.20061449 102.31997809 40.22347208 102 42.25 C101.73509766 43.90708984 101.73509766 43.90708984 101.46484375 45.59765625 C101.33207031 46.45230469 101.19929688 47.30695313 101.0625 48.1875 C100.4025 48.1875 99.7425 48.1875 99.0625 48.1875 C99.0625 49.1775 99.0625 50.1675 99.0625 51.1875 C98.4025 51.1875 97.7425 51.1875 97.0625 51.1875 C97.0625 52.8375 97.0625 54.4875 97.0625 56.1875 C97.7225 56.1875 98.3825 56.1875 99.0625 56.1875 C99.0625 57.8375 99.0625 59.4875 99.0625 61.1875 C99.7225 61.1875 100.3825 61.1875 101.0625 61.1875 C101.19527344 61.89777344 101.32804687 62.60804688 101.46484375 63.33984375 C101.72974609 64.71849609 101.72974609 64.71849609 102 66.125 C102.17402344 67.04152344 102.34804688 67.95804687 102.52734375 68.90234375 C102.83964988 71.14039844 102.83964988 71.14039844 104.0625 72.1875 C104.10313832 73.85367115 104.105221 75.52138095 104.0625 77.1875 C104.7225 77.1875 105.3825 77.1875 106.0625 77.1875 C106.0625 79.1675 106.0625 81.1475 106.0625 83.1875 C101.4425 83.1875 96.8225 83.1875 92.0625 83.1875 C92.0625 81.8675 92.0625 80.5475 92.0625 79.1875 C91.4025 79.1875 90.7425 79.1875 90.0625 79.1875 C89.92972656 78.47722656 89.79695313 77.76695312 89.66015625 77.03515625 C89.39525391 75.65650391 89.39525391 75.65650391 89.125 74.25 C88.95097656 73.33347656 88.77695312 72.41695313 88.59765625 71.47265625 C88.28535012 69.23460156 88.28535012 69.23460156 87.0625 68.1875 C87.02186168 66.52132885 87.019779 64.85361905 87.0625 63.1875 C86.4025 63.1875 85.7425 63.1875 85.0625 63.1875 C84.7325 69.7875 84.4025 76.3875 84.0625 83.1875 C76.1425 83.1875 68.2225 83.1875 60.0625 83.1875 C59.12600665 77.56853988 58.98614998 72.8374013 59.0625 67.1875 C55.7625 67.1875 52.4625 67.1875 49.0625 67.1875 C49.10375 68.528125 49.145 69.86875 49.1875 71.25 C49.32990148 75.87804811 48.45317637 78.32013271 47.0625 83.1875 C39.1425 83.1875 31.2225 83.1875 23.0625 83.1875 C22.5675 71.8025 22.5675 71.8025 22.0625 60.1875 C21.0725 62.6625 21.0725 62.6625 20.0625 65.1875 C16.4325 65.1875 12.8025 65.1875 9.0625 65.1875 C8.4025 63.8675 7.7425 62.5475 7.0625 61.1875 C6.7325 68.4475 6.4025 75.7075 6.0625 83.1875 C2.1025 83.1875 -1.8575 83.1875 -5.9375 83.1875 C-5.96062328 72.51330302 -5.97841501 61.83911194 -5.98931217 51.16489506 C-5.99454103 46.20896078 -6.00163874 41.25304358 -6.01293945 36.29711914 C-6.02376822 31.51851164 -6.02977681 26.73992062 -6.03237724 21.9613018 C-6.03423151 20.13396381 -6.03785216 18.30662676 -6.04323006 16.47929573 C-6.05044036 13.92896671 -6.05149095 11.37870663 -6.05102539 8.82836914 C-6.05462067 8.06520386 -6.05821594 7.30203857 -6.06192017 6.51574707 C-6.05011665 0.57961486 -5.9051411 0.04236113 0 0 Z M84.0625 22.1875 C84.0625 27.4675 84.0625 32.7475 84.0625 38.1875 C86.0425 38.1875 88.0225 38.1875 90.0625 38.1875 C92.36310534 36.3246051 92.36310534 36.3246051 92.2578125 33.3671875 C92.23460937 32.27664062 92.21140625 31.18609375 92.1875 30.0625 C92.16945313 28.96679688 92.15140625 27.87109375 92.1328125 26.7421875 C92.10960937 25.89914063 92.08640625 25.05609375 92.0625 24.1875 C91.4025 24.1875 90.7425 24.1875 90.0625 24.1875 C90.0625 23.5275 90.0625 22.8675 90.0625 22.1875 C88.0825 22.1875 86.1025 22.1875 84.0625 22.1875 Z M53.0625 42.1875 C52.7325 43.5075 52.4025 44.8275 52.0625 46.1875 C53.0525 46.1875 54.0425 46.1875 55.0625 46.1875 C54.7325 44.8675 54.4025 43.5475 54.0625 42.1875 C53.7325 42.1875 53.4025 42.1875 53.0625 42.1875 Z " fill="#DA1FDA" transform="translate(298.9375,133.8125)"/>
<path d="M0 0 C1.81242052 -0.02687279 3.62495233 -0.04633715 5.4375 -0.0625 C6.44683594 -0.07410156 7.45617187 -0.08570313 8.49609375 -0.09765625 C11 0 11 0 12 1 C12.23701239 3.85877909 12.42219182 6.69883297 12.5625 9.5625 C12.60568359 10.36880859 12.64886719 11.17511719 12.69335938 12.00585938 C12.79975262 14.00368805 12.90040888 16.0018207 13 18 C13.99 14.04 14.98 10.08 16 6 C16.66 6 17.32 6 18 6 C17.979375 5.195625 17.95875 4.39125 17.9375 3.5625 C18 1 18 1 19 0 C20.69558726 -0.09932153 22.39525747 -0.13080007 24.09375 -0.1328125 C25.12371094 -0.13410156 26.15367187 -0.13539063 27.21484375 -0.13671875 C28.84099609 -0.13091797 28.84099609 -0.13091797 30.5 -0.125 C31.58410156 -0.12886719 32.66820312 -0.13273438 33.78515625 -0.13671875 C34.81511719 -0.13542969 35.84507812 -0.13414062 36.90625 -0.1328125 C38.33420898 -0.13112061 38.33420898 -0.13112061 39.79101562 -0.12939453 C42 0 42 0 43 1 C43.09370624 2.77991924 43.11744271 4.56356739 43.11352539 6.34594727 C43.11344986 7.4870546 43.11337433 8.62816193 43.11329651 9.80384827 C43.10813522 11.0454924 43.10297394 12.28713654 43.09765625 13.56640625 C43.0962413 14.83016586 43.09482635 16.09392548 43.09336853 17.39598083 C43.08870582 20.76124889 43.0797148 24.1264499 43.06866455 27.49169922 C43.05844846 30.9234967 43.05387049 34.35530109 43.04882812 37.78710938 C43.0377738 44.52475824 43.0210171 51.26237525 43 58 C43.66 58 44.32 58 45 58 C45.12375 58.639375 45.2475 59.27875 45.375 59.9375 C45.58125 60.618125 45.7875 61.29875 46 62 C46.99 62.495 46.99 62.495 48 63 C49.51235104 58.93475241 50.25734742 55.52588093 50.30297852 51.1940918 C50.31962051 50.07661057 50.33626251 48.95912933 50.35340881 47.80778503 C50.36182297 46.61695816 50.37023712 45.42613129 50.37890625 44.19921875 C50.39590073 42.96710159 50.4128952 41.73498444 50.43040466 40.4655304 C50.48344407 36.53957196 50.52381306 32.61362407 50.5625 28.6875 C50.60539352 24.74357281 50.65298948 20.79972601 50.70530701 16.85591125 C50.73735741 14.40316521 50.76421796 11.95034509 50.78553772 9.4974823 C50.79902756 8.39576187 50.8125174 7.29404144 50.82641602 6.15893555 C50.84068382 4.69716133 50.84068382 4.69716133 50.85523987 3.20585632 C51 1 51 1 52 0 C53.85287502 -0.07226502 55.70833878 -0.0838122 57.5625 -0.0625 C58.57441406 -0.05347656 59.58632813 -0.04445312 60.62890625 -0.03515625 C61.41136719 -0.02355469 62.19382812 -0.01195312 63 0 C63.02322795 8.09328123 63.04096821 16.18654839 63.05181217 24.27985477 C63.05701819 28.03838852 63.0640742 31.79689936 63.07543945 35.55541992 C63.08634967 39.18641318 63.092294 42.81738448 63.09487724 46.44839287 C63.09671688 47.82978091 63.10030912 49.21116783 63.10573006 50.59254646 C63.11304849 52.53572531 63.11340898 54.47892651 63.11352539 56.42211914 C63.115746 57.52576309 63.11796661 58.62940704 63.12025452 59.76649475 C62.99128109 63.23444157 62.54653225 66.5750499 62 70 C61.34 70 60.68 70 60 70 C60 71.32 60 72.64 60 74 C59.34 74 58.68 74 58 74 C57.67 75.65 57.34 77.3 57 79 C56.34 79 55.68 79 55 79 C54.505 80.485 54.505 80.485 54 82 C51.56045342 83.21977329 49.84694151 83.20153813 47.125 83.25 C46.26132812 83.27578125 45.39765625 83.3015625 44.5078125 83.328125 C41.51774897 82.93690173 40.16120725 82.07073811 38 80 C38 79.34 38 78.68 38 78 C37.34 78 36.68 78 36 78 C33.78145293 73.37802694 32.61718841 70.23175837 33 65 C32.34 65 31.68 65 31 65 C30.67 48.17 30.34 31.34 30 14 C28.61480363 18.1555891 27.4101937 22.14011669 26.375 26.375 C26.11460937 27.43460938 25.85421875 28.49421875 25.5859375 29.5859375 C25.39257812 30.38257813 25.19921875 31.17921875 25 32 C24.34 32 23.68 32 23 32 C23 38.27 23 44.54 23 51 C23.66 51 24.32 51 25 51 C25.50744423 52.89385437 26.00564574 54.79018666 26.5 56.6875 C26.7784375 57.74324219 27.056875 58.79898438 27.34375 59.88671875 C27.9391715 62.71142672 28.12786492 65.12836708 28 68 C28.66 68 29.32 68 30 68 C30 69.98 30 71.96 30 74 C30.66 74 31.32 74 32 74 C32.495 78.455 32.495 78.455 33 83 C28.38 83 23.76 83 19 83 C18.67 80.69 18.34 78.38 18 76 C17.34 76 16.68 76 16 76 C15.01 72.04 14.02 68.08 13 64 C12.93941406 65.28777344 12.87882813 66.57554687 12.81640625 67.90234375 C12.73201753 69.58074159 12.6473687 71.25912636 12.5625 72.9375 C12.52318359 73.78763672 12.48386719 74.63777344 12.44335938 75.51367188 C12.40146484 76.32255859 12.35957031 77.13144531 12.31640625 77.96484375 C12.27974854 78.7137085 12.24309082 79.46257324 12.20532227 80.23413086 C12 82 12 82 11 83 C9.14712498 83.07226502 7.29166122 83.0838122 5.4375 83.0625 C3.91962891 83.04896484 3.91962891 83.04896484 2.37109375 83.03515625 C1.58863281 83.02355469 0.80617187 83.01195312 0 83 C-1.50947898 79.98104205 -1.13859572 76.86358276 -1.12939453 73.55273438 C-1.13114685 72.78512283 -1.13289917 72.01751129 -1.13470459 71.22663879 C-1.13911572 68.68231972 -1.1361877 66.13806982 -1.1328125 63.59375 C-1.13348575 61.83020006 -1.13445595 60.06665021 -1.13571167 58.30310059 C-1.13718764 54.60423907 -1.13503731 50.90540168 -1.13037109 47.20654297 C-1.12467387 42.45820953 -1.12795341 37.70993262 -1.13394356 32.96160126 C-1.13755188 29.31914848 -1.13640933 25.67670916 -1.13381577 22.03425598 C-1.13314725 20.28310642 -1.13397231 18.53195564 -1.13629532 16.7808075 C-1.13882626 14.33626045 -1.13497498 11.89180577 -1.12939453 9.44726562 C-1.13141876 8.71888992 -1.13344299 7.99051422 -1.13552856 7.24006653 C-1.11426443 2.22852887 -1.11426443 2.22852887 0 0 Z " fill="#9F52E4" transform="translate(228,134)"/>
</svg>
